HIERARCHY
ROOT Hips
{
	OFFSET 0.000000 0.000000 0.000000
	CHANNELS 6 Xposition Yposition Zposition Zrotation Yrotation Xrotation 
	JOINT LHipJoint
	{
		OFFSET 0.000000 0.000000 0.000000
		CHANNELS 3 Zrotation Yrotation Xrotation
		JOINT LeftUpLeg
		{
			OFFSET 1.363060 -1.794630 0.839290
			CHANNELS 3 Zrotation Yrotation Xrotation
			JOINT LeftLeg
			{
				OFFSET 2.448110 -6.726130 0.000000
				CHANNELS 3 Zrotation Yrotation Xrotation
				JOINT LeftFoot
				{
					OFFSET 2.562200 -7.039590 0.000000
					CHANNELS 3 Zrotation Yrotation Xrotation
					JOINT LeftToeBase
					{
						OFFSET 0.157640 -0.433110 2.322550
						CHANNELS 3 Zrotation Yrotation Xrotation
						End Site
						{
							OFFSET 0.000000 0.000000 0.000000
						}
					}
				}
			}
		}
	}
	JOINT RHipJoint
	{
		OFFSET 0.000000 0.000000 0.000000
		CHANNELS 3 Zrotation Yrotation Xrotation
		JOINT RightUpLeg
		{
			OFFSET -1.305520 -1.794630 0.839290
			CHANNELS 3 Zrotation Yrotation Xrotation
			JOINT RightLeg
			{
				OFFSET -2.542530 -6.985550 0.000000
				CHANNELS 3 Zrotation Yrotation Xrotation
				JOINT RightFoot
				{
					OFFSET -2.568260 -7.056230 0.000000
					CHANNELS 3 Zrotation Yrotation Xrotation
					JOINT RightToeBase
					{
						OFFSET -0.164730 -0.452590 2.363150
						CHANNELS 3 Zrotation Yrotation Xrotation
						End Site
						{
							OFFSET 0.000000 0.000000 0.000000
						}
					}
				}
			}
		}
	}
	JOINT LowerBack
	{
		OFFSET 0.000000 0.000000 0.000000
		CHANNELS 3 Zrotation Yrotation Xrotation
		JOINT Spine
		{
			OFFSET 0.028270 2.035590 -0.193380
			CHANNELS 3 Zrotation Yrotation Xrotation
			JOINT Spine1
			{
				OFFSET 0.056720 2.048850 -0.042750
				CHANNELS 3 Zrotation Yrotation Xrotation
				JOINT Neck
				{
					OFFSET 0.000000 0.000000 0.000000
					CHANNELS 3 Zrotation Yrotation Xrotation
					JOINT Neck1
					{
						OFFSET -0.054170 1.746240 0.172020
						CHANNELS 3 Zrotation Yrotation Xrotation
						JOINT Head
						{
							OFFSET 0.104070 1.761360 -0.123970
							CHANNELS 3 Zrotation Yrotation Xrotation
							End Site
							{
								OFFSET 0.000000 0.000000 0.000000
							}
						}
					}
				}
				JOINT LeftShoulder
				{
					OFFSET 0.000000 0.000000 0.000000
					CHANNELS 3 Zrotation Yrotation Xrotation
					JOINT LeftArm
					{
						OFFSET 3.362410 1.200890 -0.311210
						CHANNELS 3 Zrotation Yrotation Xrotation
						JOINT LeftForeArm
						{
							OFFSET 4.983000 -0.000000 -0.000000
							CHANNELS 3 Zrotation Yrotation Xrotation
							JOINT LeftHand
							{
								OFFSET 3.483560 -0.000000 -0.000000
								CHANNELS 3 Zrotation Yrotation Xrotation
								JOINT LeftFingerBase
								{
									OFFSET 0.000000 0.000000 0.000000
									CHANNELS 3 Zrotation Yrotation Xrotation
									JOINT LeftHandIndex1
									{
										OFFSET 0.715260 -0.000000 -0.000000
										CHANNELS 3 Zrotation Yrotation Xrotation
										End Site
										{
											OFFSET 0.000000 0.000000 0.000000
										}
									}
								}
								JOINT LThumb
								{
									OFFSET 0.000000 0.000000 0.000000
									CHANNELS 3 Zrotation Yrotation Xrotation
									End Site
									{
										OFFSET 0.000000 0.000000 0.000000
									}
								}
							}
						}
					}
				}
				JOINT RightShoulder
				{
					OFFSET 0.000000 0.000000 0.000000
					CHANNELS 3 Zrotation Yrotation Xrotation
					JOINT RightArm
					{
						OFFSET -3.136600 1.374050 -0.404650
						CHANNELS 3 Zrotation Yrotation Xrotation
						JOINT RightForeArm
						{
							OFFSET -5.241900 -0.000000 -0.000000
							CHANNELS 3 Zrotation Yrotation Xrotation
							JOINT RightHand
							{
								OFFSET -3.444170 -0.000000 -0.000000
								CHANNELS 3 Zrotation Yrotation Xrotation
								JOINT RightFingerBase
								{
									OFFSET 0.000000 0.000000 0.000000
									CHANNELS 3 Zrotation Yrotation Xrotation
									JOINT RightHandIndex1
									{
										OFFSET -0.622530 -0.000000 -0.000000
										CHANNELS 3 Zrotation Yrotation Xrotation
										End Site
										{
											OFFSET 0.000000 0.000000 0.000000
										}
									}
								}
								JOINT RThumb
								{
									OFFSET 0.000000 0.000000 0.000000
									CHANNELS 3 Zrotation Yrotation Xrotation
									End Site
									{
										OFFSET 0.000000 0.000000 0.000000
									}
								}
							}
						}
					}
				}
			}
		}
	}
}
MOTION
Frames: 12
Frame Time: 0.008333
0.370426 17.783101 -14.480185 -2.391139 -0.803922 6.928663 -1.792555 -0.203426 0.827701 -13.064026 2.421107 -16.961033 -0.152809 7.000034 19.209540 -0.491585 4.069608 -0.540889 0.022400 -0.966200 -2.655900 -0.193336 -0.123993 0.005298 18.668970 2.230140 -14.919253 -0.341934 -7.332736 20.581295 -0.051077 -1.478577 -3.971799 -0.186900 -2.784700 7.679800 1.680746 -0.370715 -0.292685 1.405650 -0.485726 -2.055721 0.823864 -0.569837 7.009825 -3.500705 -0.643710 -10.697244 3.388697 -0.252075 31.334363 0.811400 0.369200 12.650300 9.178413 5.417953 0.295071 -94.560294 -8.195775 27.770285 7.179159 -16.503841 -1.098804 -0.224252 -0.687945 -1.598042 24.516958 -3.813030 -1.409100 -7.125000 0.000000 0.000000 -1.404200 26.613700 0.626600 -8.277479 -4.404198 -0.033766 93.182213 7.957986 12.196964 -9.647185 21.252400 -2.143631 0.846532 0.930227 32.610537 -21.027346 -23.438404 9.238400 7.125000 0.000000 0.000000 8.998600 -56.050400 -2.453300
0.371599 17.777099 -14.499121 -2.423902 -0.817039 7.016739 -1.775528 -0.229856 0.794653 -13.042383 2.396184 -17.271662 -0.112416 7.113751 19.521525 -0.486113 4.044218 -0.610133 0.023452 -0.988642 -2.717609 -0.205302 -0.102576 -0.006362 18.699475 2.298226 -15.207091 -0.373183 -7.421559 20.819957 -0.054524 -1.466575 -4.000718 -0.179218 -2.726833 7.519157 1.701117 -0.357716 -0.085131 1.407305 -0.460636 -2.042304 0.829149 -0.556443 6.960713 -3.506866 -0.648197 -10.686951 3.389088 -0.258302 31.187784 0.807038 0.364271 12.586548 9.180221 5.405052 0.293463 -94.508920 -8.265563 27.828281 7.236604 -16.602295 -1.115656 -0.222438 -0.688619 -1.839703 24.608007 -3.854593 -1.434195 -7.125000 0.000000 0.000000 -1.334157 26.565716 0.596733 -8.276515 -4.391917 -0.034863 93.123240 8.054253 12.218858 -9.676563 21.290729 -2.155849 0.846912 0.927801 32.540373 -21.057264 -23.387062 9.235279 7.125000 0.000000 0.000000 8.940325 -56.002246 -2.426813
0.372827 17.770360 -14.519802 -2.455915 -0.831129 7.115894 -1.756561 -0.258840 0.758298 -13.023513 2.375032 -17.615094 -0.068081 7.236578 19.859092 -0.478499 4.009442 -0.684588 0.024605 -1.012641 -2.783587 -0.218981 -0.079245 -0.019215 18.727783 2.374369 -15.523452 -0.408037 -7.519268 21.083246 -0.059892 -1.446239 -4.042015 -0.172153 -2.672663 7.368642 1.719289 -0.345406 0.136495 1.409662 -0.435828 -2.027278 0.837440 -0.543565 6.913188 -3.504264 -0.651818 -10.692930 3.380688 -0.260758 31.034937 0.797234 0.361223 12.525597 9.182436 5.392444 0.291322 -94.458468 -8.333787 27.895755 7.297445 -16.706213 -1.132715 -0.222488 -0.688937 -2.100613 24.750529 -3.979243 -1.501613 -7.125000 0.000000 0.000000 -1.224153 26.424766 0.551558 -8.274662 -4.378929 -0.036445 93.060894 8.157973 12.225720 -9.708506 21.332027 -2.169038 0.847266 0.925344 32.470511 -21.085910 -23.334229 9.231054 7.125000 0.000000 0.000000 8.882958 -55.952131 -2.400206
0.374301 17.762814 -14.542230 -2.484798 -0.850307 7.225976 -1.735569 -0.290280 0.718827 -13.010587 2.359776 -17.990345 -0.019622 7.368240 20.221569 -0.468926 3.966597 -0.765611 0.025841 -1.037215 -2.851126 -0.234751 -0.053976 -0.033417 18.750565 2.463255 -15.869985 -0.447813 -7.628581 21.378970 -0.067853 -1.414882 -4.101247 -0.166468 -2.628263 7.245480 1.730950 -0.332831 0.371537 1.412638 -0.409979 -2.010649 0.851955 -0.530983 6.867539 -3.501155 -0.656273 -10.715738 3.368698 -0.261823 30.878403 0.785763 0.358450 12.468800 9.184818 5.380198 0.288868 -94.412617 -8.398361 27.958113 7.360903 -16.814523 -1.150361 -0.223411 -0.689026 -2.366445 24.916877 -4.145551 -1.591155 -7.125000 0.000000 0.000000 -1.095940 26.236699 0.498605 -8.272318 -4.365762 -0.038618 92.994916 8.261123 12.222137 -9.746948 21.382702 -2.184678 0.847767 0.923051 32.399562 -21.119658 -23.287991 9.231514 7.125000 0.000000 0.000000 8.823236 -55.910049 -2.374885
0.375774 17.754129 -14.566438 -2.504184 -0.881165 7.350373 -1.712205 -0.324696 0.675943 -13.011893 2.354624 -18.403029 0.033448 7.509280 20.611299 -0.457451 3.915348 -0.856882 0.026985 -1.059772 -2.913354 -0.253013 -0.026345 -0.049245 18.759796 2.568458 -16.257320 -0.494143 -7.753642 21.718004 -0.079258 -1.368272 -4.178546 -0.162400 -2.596548 7.157485 1.728228 -0.317848 0.619392 1.415268 -0.380156 -1.992819 0.874272 -0.517349 6.820193 -3.501148 -0.661347 -10.735627 3.355917 -0.262795 30.704694 0.773614 0.355115 12.403505 9.187432 5.367585 0.286814 -94.370372 -8.458771 28.017150 7.425819 -16.925785 -1.168744 -0.224043 -0.689167 -2.637377 25.084776 -4.304885 -1.678586 -7.125000 0.000000 0.000000 -0.967457 26.055753 0.444244 -8.269721 -4.352723 -0.040744 92.925748 8.359368 12.205661 -9.790987 21.441370 -2.202436 0.848213 0.921348 32.324954 -21.152131 -23.257922 9.236892 7.125000 0.000000 0.000000 8.772259 -55.884738 -2.355610
0.377385 17.744296 -14.592753 -2.512541 -0.923237 7.491743 -1.685900 -0.362404 0.629366 -13.028942 2.360276 -18.857976 0.091572 7.660274 21.029835 -0.442902 3.850555 -0.959212 0.027962 -1.079509 -2.967579 -0.274111 0.004002 -0.066898 18.754584 2.689879 -16.696146 -0.548640 -7.897202 22.108643 -0.092761 -1.312733 -4.270875 -0.158054 -2.561432 7.060026 1.709008 -0.299713 0.879858 1.416731 -0.345676 -1.974487 0.902952 -0.502027 6.768386 -3.507806 -0.667562 -10.743778 3.348884 -0.266899 30.506619 0.763705 0.350194 12.323765 9.190042 5.354086 0.285375 -94.323786 -8.510942 28.092648 7.495934 -17.047087 -1.189784 -0.221904 -0.690067 -2.934181 25.205117 -4.363569 -1.715359 -7.125000 0.000000 0.000000 -0.875908 25.987451 0.403590 -8.267363 -4.340057 -0.042581 92.856026 8.455103 12.173796 -9.836990 21.501920 -2.220760 0.848831 0.920009 32.248313 -21.188702 -23.241106 9.249018 7.125000 0.000000 0.000000 8.723141 -55.874154 -2.340003
0.378817 17.733123 -14.621062 -2.508965 -0.970543 7.649758 -1.656573 -0.403301 0.579040 -13.061516 2.372619 -19.354218 0.154765 7.820992 21.477134 -0.424860 3.770826 -1.072212 0.029114 -1.101872 -3.029146 -0.298044 0.036908 -0.086256 18.734569 2.826368 -17.185517 -0.611252 -8.058335 22.548022 -0.107467 -1.253013 -4.374203 -0.153240 -2.522171 6.951060 1.672520 -0.281257 1.151461 1.417141 -0.310257 -1.955801 0.937307 -0.486929 6.712631 -3.515752 -0.672024 -10.741153 3.343699 -0.269609 30.282327 0.753794 0.345918 12.229267 9.192749 5.339924 0.284363 -94.270497 -8.550160 28.187063 7.574229 -17.183725 -1.214076 -0.218661 -0.691317 -3.259006 25.311517 -4.393802 -1.737689 -7.125000 0.000000 0.000000 -0.795148 25.951342 0.367013 -8.265058 -4.327700 -0.044141 92.784940 8.549488 12.139906 -9.884853 21.564502 -2.239704 0.849329 0.919013 32.156380 -21.226218 -23.228351 9.263007 7.125000 0.000000 0.000000 8.674647 -55.868113 -2.325648
0.380055 17.720522 -14.651472 -2.498423 -1.015097 7.823333 -1.623572 -0.447127 0.524770 -13.103389 2.389462 -19.893071 0.223784 7.992533 21.956438 -0.401992 3.669889 -1.192873 0.030651 -1.130308 -3.107441 -0.325062 0.072114 -0.107114 18.705790 2.977646 -17.722191 -0.682058 -8.236265 23.034529 -0.122395 -1.193664 -4.489572 -0.148151 -2.480528 6.835700 1.625621 -0.263669 1.434504 1.416729 -0.275715 -1.936992 0.974128 -0.472462 6.652786 -3.527307 -0.674507 -10.731700 3.344170 -0.271400 30.034448 0.746307 0.342109 12.122505 9.195251 5.325318 0.283607 -94.207259 -8.571801 28.301481 7.662733 -17.338982 -1.242397 -0.214091 -0.692963 -3.605013 25.395116 -4.385235 -1.739675 -7.125000 0.000000 0.000000 -0.731928 25.958992 0.337706 -8.263225 -4.315918 -0.045598 92.712800 8.635074 12.112078 -9.937926 21.635114 -2.260737 0.849737 0.918154 32.034939 -21.273571 -23.210683 9.280073 7.125000 0.000000 0.000000 8.613202 -55.859179 -2.307076
0.380822 17.706018 -14.684172 -2.487482 -1.054139 8.015068 -1.585654 -0.494082 0.465462 -13.147516 2.409813 -20.484324 0.300501 8.177571 22.475885 -0.373408 3.544436 -1.321050 0.032688 -1.166808 -3.207775 -0.355924 0.109786 -0.129607 18.675068 3.152903 -18.306925 -0.761615 -8.430430 23.567212 -0.136362 -1.142260 -4.617552 -0.142805 -2.435182 6.709887 1.575014 -0.248298 1.731677 1.416337 -0.244044 -1.917309 1.012324 -0.459602 6.592702 -3.540160 -0.673719 -10.733864 3.347320 -0.268669 29.768128 0.740381 0.340106 12.012059 9.197422 5.310969 0.282568 -94.134375 -8.577192 28.430796 7.761107 -17.511545 -1.274521 -0.209013 -0.694756 -3.972764 25.469386 -4.372571 -1.738846 -7.125000 0.000000 0.000000 -0.675787 25.971621 0.311643 -8.261675 -4.304732 -0.047433 92.640384 8.708403 12.101931 -9.998870 21.718067 -2.284951 0.850330 0.917429 31.872808 -21.344130 -23.187650 9.306446 7.125000 0.000000 0.000000 8.524093 -55.849618 -2.280993
0.381420 17.689937 -14.718982 -2.481879 -1.085833 8.218143 -1.543137 -0.542878 0.402060 -13.187475 2.427876 -21.115633 0.384879 8.375035 23.032964 -0.340861 3.401582 -1.456969 0.034841 -1.205513 -3.314361 -0.390123 0.148797 -0.152883 18.648165 3.345282 -18.922660 -0.847627 -8.634883 24.129781 -0.149347 -1.097162 -4.756268 -0.137451 -2.389196 6.582539 1.529624 -0.235796 2.046827 1.416679 -0.215596 -1.897267 1.049301 -0.448011 6.527497 -3.549693 -0.670651 -10.740543 3.347516 -0.262290 29.483621 0.732493 0.339605 11.896149 9.199506 5.296692 0.281268 -94.053183 -8.563489 28.569994 7.865139 -17.693430 -1.308437 -0.204569 -0.696438 -4.356689 25.560867 -4.395400 -1.756549 -7.125000 0.000000 0.000000 -0.606658 25.944280 0.280074 -8.259827 -4.293602 -0.049343 92.568450 8.770207 12.096728 -10.060798 21.802303 -2.309396 0.851444 0.916415 31.692520 -21.436946 -23.155036 9.340324 7.125000 0.000000 0.000000 8.406502 -55.835031 -2.246199
0.381941 17.672190 -14.755855 -2.485876 -1.108382 8.430296 -1.496179 -0.592822 0.334865 -13.217711 2.437500 -21.780854 0.477011 8.584048 23.625053 -0.305403 3.245866 -1.602646 0.036985 -1.241026 -3.412198 -0.427465 0.188641 -0.176547 18.629368 3.553194 -19.560974 -0.938532 -8.845427 24.711030 -0.160992 -1.060696 -4.903109 -0.132106 -2.342740 6.453828 1.495791 -0.227036 2.384724 1.418654 -0.191430 -1.876872 1.083272 -0.438273 6.453917 -3.538813 -0.664438 -10.743513 3.327257 -0.249202 29.174328 0.711169 0.342271 11.769936 9.202532 5.282348 0.279913 -93.966653 -8.536563 28.711803 7.968442 -17.872754 -1.341666 -0.202116 -0.697522 -4.753106 25.690648 -4.507834 -1.821173 -7.125000 0.000000 0.000000 -0.508712 25.815609 0.236332 -8.256385 -4.281726 -0.051083 92.494228 8.819031 12.097924 -10.122187 21.885446 -2.333489 0.852751 0.915702 31.501578 -21.536471 -23.128666 9.379605 7.125000 0.000000 0.000000 8.284466 -55.828572 -2.211974
0.382699 17.653103 -14.794801 -2.503362 -1.123837 8.648867 -1.444589 -0.643206 0.263960 -13.234791 2.436930 -22.473360 0.577302 8.803962 24.251185 -0.267692 3.080725 -1.763466 0.038567 -1.267005 -3.483814 -0.467925 0.228832 -0.200659 18.622231 3.772449 -20.215006 -1.033221 -9.059083 25.303051 -0.171463 -1.031619 -5.057981 -0.126940 -2.296853 6.326896 1.480360 -0.221284 2.746674 1.422476 -0.170235 -1.853814 1.111080 -0.429418 6.379381 -3.503581 -0.655477 -10.748248 3.283895 -0.230098 28.837383 0.674605 0.348044 11.633303 9.206384 5.268197 0.278903 -93.876793 -8.505471 28.850721 8.065387 -18.039370 -1.372124 -0.202331 -0.697810 -5.152687 25.863919 -4.734053 -1.946126 -7.125000 0.000000 0.000000 -0.378692 25.557745 0.178223 -8.250979 -4.269359 -0.052497 92.414368 8.860211 12.118986 -10.183934 21.969466 -2.357605 0.853739 0.915892 31.292871 -21.629943 -23.119212 9.422095 7.125000 0.000000 0.000000 8.176476 -55.838673 -2.184845
